<?xml version="1.0" encoding="utf-8"?>
<!-- Generator: Adobe Illustrator 19.2.1, SVG Export Plug-In . SVG Version: 6.00 Build 0)  -->
<svg version="1.1" id="layer" xmlns="http://www.w3.org/2000/svg" xmlns:xlink="http://www.w3.org/1999/xlink" x="0px" y="0px"
	 viewBox="0 0 652 652" style="enable-background:new 0 0 652 652;" xml:space="preserve">
<style type="text/css">
	.st0{fill:#00AEEF;}
	.st1{fill:#006BB6;}
	.st2{fill:#FFFFFF;}
	.st3{fill:#ED1B2D;}
	.st4{fill:#F9A13A;}
</style>
<path class="st0" d="M29.1,327.6c-3.2,3.4-2.8,8.3-2.8,8.5l0.1,0.7h49.5c10.4,0,11.3-11.4,11.4-11.5l0-0.8h-50
	C33.7,324.5,31,325.5,29.1,327.6"/>
<path class="st0" d="M74.6,347.9H26.3v12.3h44.3c1.2,0,1.4,0.9,1.5,1.1l0,9c0,0.3-0.1,0.9-0.9,0.9H26.3v12.3h48.4
	c9.2,0,10.6-9.3,10.6-9.4v-16.6C85.2,357.2,84,347.9,74.6,347.9"/>
<path class="st0" d="M137.1,369.9c0,1.1-0.7,1.3-0.9,1.3H104c-0.1,0-0.7-0.2-0.7-1.3v-45.4H90v49.5c0,0.1,0.7,9.5,10.6,9.5h39.1
	c9.6,0,10.7-9.3,10.7-9.4v-49.5h-13.3V369.9"/>
<path class="st0" d="M203.6,324.5h-48.6v12.3h44.8l0.8,0.2l0.3,1v12.4c0,0.3-0.1,1.3-1,1.3h-41.4c-1.2,0-3.4,1-3.4,4.1v27.7h13.3
	v-19.2c0.2-0.3,0.2-0.3,0.4-0.3h34.9c10.2,0,10.6-9.4,10.6-9.5V334C214.3,333.9,213.6,324.5,203.6,324.5"/>
<rect x="218.9" y="347.9" class="st0" width="59.2" height="12.3"/>
<path class="st0" d="M220.1,327.9c-3.3,3.4-3.3,7.9-3.3,8.1v0.7h61.3v-12.3h-48.4C225.6,324.5,222.4,325.6,220.1,327.9"/>
<path class="st0" d="M216.8,371.9c0,0.1,1,11.5,13,11.5h48.4v-12.3h-61.4L216.8,371.9"/>
<path class="st0" d="M331.3,324.5h-48.6v12.3h43.8c1.9,0,2.1,1.2,2.1,1.5v12.2c0,0.1-0.2,0.7-0.2,0.7c-0.3,0.3-0.9,0.5-1.6,0.5
	h-48.2l43.1,31.8h19.5c0,0-23.5-17.3-26.6-19.5h16.8c10.4,0,10.7-9.4,10.7-9.5V334C342,333.9,341.5,324.5,331.3,324.5"/>
<path class="st1" d="M384,324.3l-39.5,0.2h-0.7v12.3h32.5c2.4,0,2.4,0.9,2.5,1.6c0,0.2,0.1,0.3,0.1,0.4v44.7h13.3v-50.9
	c0-0.1,0.2-3.5-2-5.9C388.7,325.1,386.6,324.3,384,324.3"/>
<path class="st1" d="M615.7,324.5h-28.8c-3.3,0-5,1.8-6.1,3c0,0-0.1,0.2-0.2,0.2c-0.1,0-0.2-0.1-0.2-0.1c-1.1-1.3-2.8-3.1-6.3-3.1
	h-28.6c-8.2,0-10.5,9.3-10.5,9.4l0,47.2l-40.8-58.1l-40,56.8c-7.1-5.2-19.4-14.2-21.5-15.8h16.8c10.4,0,10.7-9.4,10.7-9.5V334
	c0-0.2-0.4-9.5-10.7-9.5h-48.6v12.3h43.7c1.9,0,2.1,1.2,2.1,1.5v12.2c0,0.1-0.3,0.7-0.3,0.7c-0.3,0.3-0.9,0.5-1.6,0.5h-48.2
	l43.1,31.8h28.5c0,0,24.8-35.3,25.9-36.8c1.1,1.6,26,36.8,26,36.8h16.5l-0.1-0.1l11.6,0.2v-45c0-1.5,1.3-1.7,1.5-1.8l22.9,0
	c0.1,0,1.4,0.2,1.4,1.4v45.3h13.3v-44.8c0-1.7,1.2-1.9,1.5-2l22.9,0c0.2,0,1.3,0.2,1.3,1.5v45.1h13.3V334
	C626.2,333.8,625.1,324.5,615.7,324.5"/>
<path class="st1" d="M450.2,382c0,0,0.1-0.2,0.2-0.3c0.1,0.1,0.3,0.3,0.4,0.3H450.2"/>
<path class="st1" d="M244.5,286.6c-1.3-1.5-3.2-2.3-5.3-2.3c-6.7,0-10.8,6-10.8,11.6c0,5.1,3.3,8.6,8.2,8.6c0.9,0,1.7-0.1,2.4-0.3
	l0.2-0.1l0.1-0.2l2.1-4.2l0.9-1.8l-1.6,1.1c-1.2,0.8-2.1,1.2-3.3,1.2c-1.9-0.1-3.2-1.8-3.2-4.3c0-4.1,2.1-7.2,4.9-7.2
	c1.4,0,2,0.4,3.4,1.4l0.5,0.3l0.3-0.6l1.3-2.6l0.2-0.3L244.5,286.6"/>
<path class="st1" d="M168.4,288.6c0-2.8-2.6-4.3-5.1-4.3c-3.1,0-5.9,1.1-8.1,3.3c-2.3,2.4-3.7,5.8-3.7,9.2c0,4.4,3,6.9,5.9,7.5
	c1.3,0.3,2.6,0.3,4.7-0.3l0.2-0.1l0.1-0.2l2.1-4.3l0.8-1.6l-1.6,0.9c-1.6,0.9-3.4,1.4-4.1,1.4c-0.8,0.1-1.4-0.1-1.8-0.6
	c-0.7-0.8-0.8-2.1-0.8-3.1C161.2,296.2,168.4,293.6,168.4,288.6 M162.1,288.2c0.5,0,0.8,0.1,0.9,0.3c0.2,0.2,0.2,0.4,0.2,0.8
	c-0.1,1.9-2.7,3.1-5.4,3.6C158.8,290.1,160.6,288.2,162.1,288.2"/>
<path class="st1" d="M149.5,283.1l-4.7,1.5l-0.3,0.1l-0.1,0.3l-0.1,0.4c-1.1-0.9-2.7-1.2-3.9-1.2c-6.1,0-10.6,6.8-10.6,12.9
	c0,4.4,2.3,7.3,5.8,7.3c2.5,0,4.6-1.2,5.5-2l-0.2,0.7c-0.7,3.6-2.8,5.8-5.8,5.8c-2.2,0-3.8-0.4-5-1.4l-0.5-0.4l-0.3,0.6l-1.5,2.9
	l-0.2,0.5l0.4,0.2c1.8,1.1,4.3,1.8,6.8,1.8c3.6,0,9.9-1.4,11.8-11.2l3.5-18.2l0.2-0.9L149.5,283.1 M143.7,289.4
	c-0.8,7.9-3.5,10.8-5.7,10.8c-1.4,0-2.3-1.4-2.3-3.4c0-5.9,3.4-8.5,5.1-8.5C142.2,288.2,142.6,288.4,143.7,289.4"/>
<path class="st1" d="M108.2,284.7h-3.7l1-5.1l0.2-0.9l-0.9,0.3l-4.6,1.4l-0.3,0.1l-0.1,0.3l-0.8,3.9h-3.2l-0.2,0.3l-1.2,2.5
	l-0.4,0.8h4.3l-1.9,9c-0.6,2.6-0.3,4.5,0.6,5.7c0.8,1,2.1,1.5,3.9,1.5c0.9,0,1.8-0.1,2.8-0.4l0.2-0.1l0.1-0.2l2.3-4.6l-1.4,0.7
	c-0.6,0.3-1.1,0.5-1.9,0.5c-0.4,0-0.7-0.1-0.9-0.3c-0.3-0.3-0.5-1.2-0.1-3.2c0,0,1.4-6.9,1.8-8.6h3.5l0.2-0.3l1.1-2.3l0-0.1l0-0.1
	l0-0.2l0.1-0.6H108.2"/>
<path class="st1" d="M185.9,286.5c-1.3-1.5-3.2-2.3-5.3-2.3c-6.7,0-10.8,6-10.8,11.6c0,5.1,3.3,8.6,8.2,8.6c0.9,0,1.7-0.1,2.4-0.3
	l0.2-0.1l0.1-0.2l2.1-4.2l0.8-1.7l-1.6,1.1c-1,0.6-2,1.2-3.3,1.2c-1.9-0.1-3.2-1.8-3.2-4.3c0-4.1,2.1-7.2,4.9-7.2
	c1.4,0,2,0.4,3.5,1.4l0.5,0.3l0.3-0.6l1.3-2.6l0.2-0.3L185.9,286.5"/>
<path class="st1" d="M128,283.2l-4.3,1.4l-0.3,0.1l-0.1,0.3l-0.1,0.5c-1.1-0.9-2.7-1.2-3.9-1.2c-6.1,0-10.6,6.8-10.6,12.9
	c0,4.4,2.3,7.3,5.8,7.3c2.5,0,4.6-1.2,5.6-2l-0.2,0.9l-0.1,0.7h5.5l0.1-0.5l3.4-19.8l0.2-0.9L128,283.2 M122.5,289.5
	c-0.8,7.9-3.5,10.8-5.7,10.8c-1.4,0-2.3-1.4-2.3-3.5c0-5.9,3.4-8.5,5.1-8.5C121.1,288.4,121.5,288.5,122.5,289.5"/>
<path class="st1" d="M94.2,278.7c-1.6-1.2-3.4-1.7-5.6-1.7c-4.7,0-8.5,3.1-8.5,7c0,2.8,0.7,4,3.1,6.8l0.4,0.4c1.3,1.5,3,3.4,3,5.5
	c0,1.4-1,3.4-3.5,3.4c-1.7,0-2.7-0.7-4.2-1.8l-0.2-0.2l-0.5-0.3l-0.3,0.5l-1.6,3.3l-0.2,0.4l0.3,0.3c1.8,1.6,4.7,2.2,6.7,2.2
	c6.8,0,9.3-4.8,9.3-8c0-2.4-1-4.5-3.7-7.5c-2.8-3.2-2.8-4.1-2.8-5v-0.1c0-1.7,1.5-2.6,2.9-2.6c1.2,0,2.2,0.6,3.3,1.2l0.4,0.2
	l0.3-0.3l0,0l0.1-0.1l0,0l1.4-2.8l0.2-0.4L94.2,278.7"/>
<path class="st1" d="M197.1,284.3c-5.2,0-10.8,4.1-10.8,11.8c0,4.7,3.7,8.4,8.3,8.4c6.9,0,10.7-6.2,10.7-12.1
	C205.3,288.7,203.2,284.3,197.1,284.3 M195.5,300.8c-2.3,0-3.5-1.7-3.5-5c0-2.2,0.9-7.8,4.7-7.8c2.1,0,2.8,2.2,2.8,4.3
	C199.6,300.5,195.9,300.8,195.5,300.8"/>
<path class="st1" d="M226.6,283.2l-4.3,1.4l-0.3,0.1L222,285l-0.1,0.5c-1-0.8-2.4-1.2-3.9-1.2c-6.1,0-10.6,6.8-10.6,12.9
	c0,4.4,2.3,7.3,5.8,7.3c2.5,0,4.6-1.2,5.6-2l-0.2,0.9l-0.1,0.6h5.5l0.1-0.4l3.4-19.8l0.1-0.9L226.6,283.2 M221.2,289.4
	c-0.8,7.9-3.5,10.8-5.7,10.8c-1.4,0-2.3-1.3-2.3-3.4c0-5.9,3.4-8.5,5.1-8.5C219.7,288.3,220.1,288.4,221.2,289.4"/>
<path class="st1" d="M259.2,284.3c-2.5,0-4.6,1-6.8,3.1l1.6-7.7l0.2-0.9l-0.9,0.3l-4.4,1.5l-0.3,0.1l-0.1,0.3l-4.5,22.5L244,304h5.5
	l0.1-0.4l1.1-6.1c0.9-5.1,4.2-8.9,5.9-8.9c0.5,0,0.9,0.1,1.1,0.3c0.3,0.3,0.4,0.8,0.3,1.6c0,0.6-0.1,1.4-0.3,2.4
	c0,0-2.1,10.5-2.1,10.5l-0.1,0.6h5.4l0.1-0.4l2.2-10.5c0.3-1.6,0.5-2.9,0.5-4.1C263.6,285.9,262.1,284.3,259.2,284.3"/>
<path class="st2" d="M52.7,295.4c-2.5,1.1-5.3,1.4-8,0.8c-0.2-0.5-0.4-1-0.5-1.4c-1.1-3.2-0.8-6.7,0.8-9.7c0.7-1.3,1.5-2.4,2.5-3.4
	c2.4,1.6,4.2,3.9,5.1,6.7C53.2,290.7,53.2,293.1,52.7,295.4 M58,272.2c-10.6-5.4-23.7-1.2-29.1,9.5c-5.4,10.6-1.2,23.7,9.5,29.1
	c5.2,2.6,11,3.1,16.5,1.3c5.5-1.8,10-5.6,12.6-10.8C72.8,290.7,68.6,277.6,58,272.2"/>
<path class="st1" d="M57.6,273c-10.2-5.2-22.7-1.1-28,9.1c-0.8,1.5-1.3,3.1-1.7,4.7c0.1-0.2,0.2-0.4,0.3-0.6
	c1.6-3.2,4.5-5.6,7.9-6.8c3.5-1.1,7.1-0.8,10.4,0.8c3.2,1.6,5.6,4.5,6.8,7.9c1.1,3.5,0.8,7.1-0.8,10.4c-3.4,6.7-11.6,9.4-18.3,6
	c-2-1-3.6-2.4-4.8-4.1c1.9,4,5.1,7.5,9.4,9.7c4.9,2.5,10.6,3,15.9,1.3c5.3-1.7,9.6-5.4,12.1-10.3C71.8,290.7,67.8,278.2,57.6,273"/>
<path class="st3" d="M43.6,295.9c-0.1-0.3-0.2-0.6-0.3-0.9c-1.1-3.5-0.8-7.1,0.8-10.4c0.6-1.3,1.5-2.4,2.5-3.4
	c-0.2-0.1-0.3-0.2-0.5-0.3c-3-1.5-6.5-1.8-9.7-0.8c-0.4,0.1-0.8,0.3-1.2,0.5c-1.4,5.6,1.2,11.7,6.6,14.4
	C42.3,295.5,43,295.7,43.6,295.9"/>
<path class="st4" d="M41.3,295.9c-5.5-2.8-8.3-8.9-7.2-14.7c-2.2,1.2-4,3.1-5.2,5.4c-3.2,6.3-0.7,13.9,5.6,17.1
	c6.3,3.2,13.9,0.7,17.1-5.6c0.3-0.5,0.5-1.1,0.7-1.6C48.9,297.8,44.9,297.7,41.3,295.9"/>
</svg>
